<?xml version="1.0" standalone="no"?>
<!DOCTYPE svg PUBLIC "-//W3C//DTD SVG 20010904//EN"
 "http://www.w3.org/TR/2001/REC-SVG-20010904/DTD/svg10.dtd">
<svg version="1.0" xmlns="http://www.w3.org/2000/svg"
 width="577.000000pt" height="433.000000pt" viewBox="0 0 577.000000 433.000000"
 preserveAspectRatio="xMidYMid meet">

<g transform="translate(0.000000,433.000000) scale(0.100000,-0.100000)"
fill="#000000" stroke="none">
<path d="M2720 3393 c-40 -13 -60 -28 -60 -45 0 -15 -5 -17 -25 -12 -21 5 -25
3 -25 -15 0 -36 -29 -24 -46 19 -15 37 -34 54 -34 29 0 -6 -9 -8 -20 -4 -12 4
-20 2 -20 -5 0 -7 -8 -9 -19 -5 -18 5 -19 3 -10 -27 12 -45 12 -47 -11 -41
-11 3 -20 0 -20 -6 0 -8 -5 -9 -19 -1 -35 18 -44 13 -37 -25 6 -28 4 -34 -8
-29 -8 3 -18 14 -21 25 -4 10 -13 19 -22 19 -15 0 -15 -2 0 -18 22 -24 5 -57
-22 -40 -26 16 -51 3 -51 -27 0 -15 -4 -24 -10 -20 -5 3 -21 3 -35 -1 -22 -5
-25 -12 -27 -53 -1 -43 -2 -44 -5 -9 -6 52 -39 71 -65 38 -10 -13 -21 -20 -24
-17 -11 10 -34 -21 -28 -36 3 -10 -2 -18 -15 -22 -16 -5 -19 -12 -14 -43 8
-60 9 -61 45 -53 18 4 43 13 56 20 35 19 28 -13 -9 -40 -27 -19 -34 -20 -55
-8 -28 14 -40 6 -47 -31 -4 -21 -4 -20 -6 8 -1 21 -6 32 -16 32 -9 0 -21 11
-27 25 -13 30 -32 28 -36 -4 -4 -28 -24 -36 -51 -21 -18 9 -22 7 -30 -14 -6
-13 -15 -27 -20 -31 -13 -7 -15 -55 -3 -55 5 0 17 -7 28 -16 18 -15 17 -15
-13 -10 -31 5 -47 -8 -20 -17 9 -3 8 -9 -4 -23 -31 -36 -33 -47 -10 -39 17 5
21 2 21 -14 0 -23 -16 -36 -25 -22 -4 7 -15 7 -30 1 -17 -7 -24 -6 -22 2 1 6
-4 13 -12 16 -10 3 -12 -2 -7 -21 4 -16 1 -27 -7 -30 -9 -3 -9 -8 2 -21 8 -9
11 -19 7 -23 -3 -4 4 -17 16 -31 l23 -24 -32 7 c-31 6 -33 5 -33 -19 0 -19 -5
-26 -20 -26 -16 0 -20 -7 -20 -30 0 -20 -5 -30 -15 -30 -22 0 -18 -18 7 -31
19 -10 19 -12 5 -21 -11 -6 -17 -22 -17 -44 0 -30 4 -37 30 -45 19 -7 30 -18
30 -30 0 -21 -20 -25 -37 -8 -13 13 -33 4 -33 -14 0 -7 -10 -17 -22 -22 -16
-7 -23 -19 -24 -42 -1 -18 3 -33 8 -33 5 0 6 -5 3 -10 -3 -6 1 -13 9 -16 9 -3
16 -12 16 -20 0 -8 10 -14 25 -14 23 0 25 -3 19 -27 -10 -42 -13 -45 -44 -38
-23 5 -29 2 -35 -17 -12 -38 -14 -87 -5 -93 5 -3 4 -16 -2 -31 -10 -20 -8 -27
8 -38 12 -9 23 -11 30 -5 8 6 14 4 18 -7 6 -16 8 -15 20 2 14 18 15 17 22 -11
4 -17 18 -41 32 -54 21 -19 27 -21 36 -10 6 8 30 29 53 47 29 23 40 38 36 49
-4 10 -2 14 7 11 7 -2 18 -19 24 -38 7 -19 17 -34 24 -33 6 2 21 -10 33 -27
12 -16 26 -27 31 -24 5 3 15 1 22 -5 10 -8 17 -6 27 7 37 45 59 83 59 102 0
11 6 20 14 20 8 0 22 3 31 6 13 5 15 2 10 -18 -7 -29 18 -46 41 -27 10 8 14 8
14 0 0 -6 7 -11 15 -11 7 0 18 -8 23 -17 5 -9 22 -17 37 -18 21 -1 30 5 37 26
5 15 18 29 29 32 25 7 24 30 -2 85 -17 34 -19 46 -9 55 9 9 11 8 8 -8 -4 -25
29 -65 54 -65 10 0 18 5 18 10 0 6 7 10 15 10 8 0 19 9 24 19 8 15 5 26 -17
53 -15 19 -33 33 -40 30 -15 -5 -15 1 2 41 37 91 171 134 272 88 142 -65 181
-291 87 -504 -32 -72 -50 -82 -182 -101 -56 -9 -130 -27 -164 -42 -114 -48
-154 -56 -262 -49 -55 3 -106 2 -114 -4 -9 -6 7 -9 48 -10 34 0 69 -5 78 -10
14 -7 11 -12 -17 -26 -40 -21 -84 -16 -164 20 -31 14 -74 25 -96 25 -44 0
-110 44 -147 99 -13 19 -23 31 -23 27 0 -17 31 -63 59 -90 17 -17 31 -40 31
-52 0 -28 66 -76 125 -93 31 -8 42 -8 55 4 9 8 34 15 56 14 l39 -1 -40 -19
c-35 -18 -36 -19 -10 -14 29 6 29 6 12 -12 -11 -11 -39 -20 -75 -24 l-57 -6
55 -2 c53 -1 58 1 95 39 34 34 45 40 82 40 24 0 43 -4 43 -8 0 -5 -18 -28 -39
-51 l-40 -43 -58 6 c-32 3 -74 2 -93 -4 -34 -9 -34 -10 8 -5 62 8 76 -7 22
-22 l-45 -13 50 5 c162 16 218 18 210 5 -16 -26 -88 -49 -139 -44 l-51 4 62
-21 62 -21 28 27 c40 38 95 64 131 63 35 -1 37 -5 23 -41 -11 -28 -56 -47
-112 -47 -22 0 -39 -5 -39 -11 0 -7 10 -9 25 -7 14 3 25 1 25 -4 0 -5 5 -6 11
-2 8 5 10 -4 7 -29 -2 -20 0 -33 4 -31 4 3 8 18 8 33 0 22 7 31 29 41 36 14
51 7 44 -20 -10 -39 -58 -79 -104 -86 -42 -7 -43 -8 -15 -15 22 -6 37 -2 68
17 38 24 40 25 54 7 19 -25 18 -28 -13 -41 -26 -10 -25 -11 13 -6 45 6 63 -6
39 -26 -11 -9 -27 -9 -65 -1 -62 13 -70 14 -70 2 0 -13 131 -25 139 -13 3 5
28 22 55 36 l49 26 20 -21 c24 -25 18 -30 -58 -54 -66 -21 -90 -35 -59 -35 26
0 118 33 137 48 19 16 42 7 55 -23 10 -22 8 -26 -18 -40 -16 -8 -38 -15 -50
-15 -17 0 -19 4 -15 28 6 24 5 25 -6 7 -6 -11 -19 -29 -28 -39 -12 -15 -13
-17 -1 -11 8 5 29 8 47 7 18 -2 44 5 58 14 27 18 31 14 15 -17 -6 -10 -7 -19
-2 -19 5 0 14 11 20 25 6 14 17 25 23 25 6 0 1 9 -13 20 -20 15 -28 35 -38 94
l-13 74 37 61 c36 58 56 76 56 49 0 -7 7 -26 16 -43 21 -40 13 -83 -25 -135
-17 -24 -31 -50 -31 -59 0 -10 8 -5 20 14 l21 30 -6 -30 c-6 -33 -6 -33 40 39
27 40 39 39 43 -3 4 -37 -9 -51 -45 -51 -13 0 -23 -4 -23 -8 0 -17 13 -21 32
-11 42 23 30 -5 -22 -53 -35 -32 -44 -44 -25 -33 17 9 38 26 48 37 21 25 33
18 18 -10 -6 -11 -7 -23 -3 -27 4 -5 2 -5 -4 -2 -11 6 -42 -39 -33 -48 11 -10
49 28 58 58 l9 32 1 -37 c1 -20 -3 -48 -9 -62 -5 -14 -5 -28 0 -31 4 -3 11 8
15 25 8 37 25 49 25 18 0 -13 5 -30 11 -38 8 -11 9 -5 4 25 -4 22 -11 45 -16
51 -20 24 45 144 95 178 25 16 26 15 26 -1 0 -10 -18 -44 -40 -77 -45 -66 -50
-101 -20 -139 11 -14 20 -36 21 -49 1 -21 2 -21 14 7 l13 30 7 -27 c4 -14 15
-34 26 -44 17 -15 19 -15 19 -1 0 9 -7 32 -16 51 -11 22 -14 44 -10 62 l7 28
21 -32 c11 -18 22 -31 25 -29 2 3 -5 20 -16 38 -22 36 -27 74 -11 84 6 3 10
-4 10 -17 1 -13 9 -39 20 -58 23 -43 24 -39 5 24 -30 98 -14 126 30 53 32 -56
32 -77 -2 -113 -27 -28 -46 -93 -24 -79 6 3 11 15 11 25 0 10 6 25 13 32 21
20 37 54 37 77 0 11 -17 52 -37 90 -20 39 -33 74 -30 78 10 10 55 -36 84 -85
31 -52 26 -93 -17 -147 -17 -21 -30 -47 -29 -59 1 -14 4 -11 10 12 5 18 14 30
18 27 14 -8 51 76 51 114 0 18 -5 42 -11 53 -7 13 -7 18 -1 14 30 -18 39 -131
15 -193 -4 -11 -3 -14 5 -9 7 4 13 19 13 34 1 21 2 22 6 7 12 -51 22 -33 17
31 l-5 69 15 -39 c13 -34 35 -61 43 -52 2 1 -13 33 -32 71 -34 68 -38 87 -13
68 7 -5 27 -15 43 -21 30 -12 30 -12 9 5 -12 10 -30 23 -40 29 -16 9 -17 15
-7 37 7 15 19 27 28 27 8 0 15 -1 15 -2 0 -2 7 -21 15 -43 13 -36 15 -38 21
-18 3 13 10 20 15 17 16 -9 10 6 -15 39 -40 54 -49 98 -30 146 9 22 20 41 25
41 13 0 39 -42 40 -65 0 -11 3 -14 6 -7 7 18 37 15 67 -9 36 -29 37 -95 1
-129 -30 -28 -39 -23 -25 14 14 38 12 79 -5 102 -13 17 -13 15 -3 -17 8 -29 7
-46 -6 -85 -21 -62 -20 -77 5 -100 l22 -19 -17 33 c-15 29 -15 33 -1 38 18 7
65 -21 65 -39 0 -8 4 -7 10 3 9 13 11 13 20 0 5 -8 10 -10 10 -5 0 6 5 3 10
-7 6 -9 18 -15 28 -13 9 2 24 4 32 5 8 1 -22 16 -68 34 l-82 32 24 23 c23 22
26 22 48 7 12 -9 29 -16 38 -16 8 0 21 -9 28 -20 7 -11 22 -20 35 -19 20 1 19
2 -5 11 -50 18 -30 38 32 32 l35 -4 -28 12 c-16 7 -26 17 -22 26 5 14 -9 8
-38 -16 -22 -19 -58 -5 -83 33 -13 20 -14 28 -4 40 11 13 15 13 29 2 28 -24
41 -29 35 -14 -3 8 -20 23 -38 33 -58 33 -141 91 -154 107 -16 19 -28 117 -15
117 6 0 29 -13 51 -30 39 -28 46 -40 55 -100 3 -14 5 -6 6 19 1 38 -4 48 -34
77 -20 18 -51 36 -70 40 -19 3 -35 11 -35 16 0 6 -28 38 -62 72 -35 33 -54 54
-43 45 11 -8 67 -37 125 -63 128 -59 169 -88 177 -127 3 -16 9 -32 14 -35 5
-3 6 9 3 26 -4 16 -2 30 3 30 19 0 43 -26 45 -50 2 -19 -4 -28 -31 -41 -57
-27 -79 -72 -41 -82 22 -6 26 3 10 19 -17 17 -1 42 32 53 39 14 48 7 48 -35 0
-74 62 -154 118 -154 l27 1 -30 13 c-37 17 -70 52 -85 90 -13 36 -9 41 27 29
20 -7 29 -17 31 -36 2 -15 7 -27 11 -27 5 0 6 11 3 25 -5 30 6 31 55 5 21 -11
51 -20 68 -19 27 1 27 2 -10 10 -22 5 -45 16 -50 23 -6 8 -31 19 -55 26 -65
17 -90 36 -90 68 l0 27 21 -25 c20 -24 20 -24 14 -2 -4 13 -2 22 4 22 21 0 99
-41 120 -64 21 -22 24 -22 87 -11 88 17 92 26 11 24 -56 -1 -73 2 -102 22
l-35 24 42 3 c23 2 70 -1 103 -7 78 -14 118 -14 110 -1 -3 6 -22 10 -41 10
-19 0 -34 5 -34 11 0 8 19 10 63 6 57 -5 59 -5 19 4 -51 12 -50 15 4 28 l39 9
-56 1 c-37 1 -61 6 -69 16 -7 8 -9 15 -4 15 4 0 -1 7 -12 16 -18 14 -17 15 20
10 22 -3 42 -10 45 -15 4 -5 20 -12 36 -15 22 -5 24 -4 10 2 -16 7 -12 10 22
14 40 6 113 51 113 70 0 5 -15 -5 -32 -22 -29 -27 -39 -31 -75 -27 -23 2 -41
2 -40 -2 4 -11 -17 -11 -51 0 -19 6 -30 15 -25 19 12 11 100 38 161 50 32 6
67 21 85 36 34 28 67 72 67 89 0 6 -9 -4 -19 -21 -28 -46 -104 -87 -152 -82
-21 2 -39 0 -39 -3 0 -11 -133 -59 -163 -59 -36 0 -92 29 -80 41 5 5 40 10 77
10 37 1 64 4 61 8 -4 3 -70 6 -148 6 -140 0 -143 1 -233 37 -73 30 -264 74
-264 61 0 -9 57 -37 88 -44 l37 -7 -39 -1 c-84 -2 -165 111 -200 281 -20 97
-20 150 0 217 18 63 82 132 139 151 89 29 200 -13 222 -85 11 -35 10 -39 -18
-62 -34 -29 -38 -67 -8 -83 11 -7 23 -9 26 -6 4 3 13 0 21 -6 11 -10 17 -9 27
5 20 28 40 21 21 -8 -23 -34 -21 -75 3 -75 11 0 21 -9 25 -22 3 -13 15 -29 28
-37 20 -12 24 -11 45 13 13 15 27 25 31 22 4 -2 23 -1 42 3 29 6 34 11 32 30
-3 21 -1 23 20 18 12 -4 26 -7 30 -7 4 0 5 -6 2 -14 -6 -15 72 -126 88 -126
13 0 68 56 68 69 0 6 6 11 14 11 16 0 26 21 27 58 0 25 1 26 12 8 7 -11 32
-41 57 -66 47 -48 80 -56 80 -18 0 14 5 18 15 14 10 -3 17 3 21 20 5 19 9 22
20 13 11 -9 14 -8 14 5 0 13 4 15 18 7 27 -14 55 10 47 42 -4 14 -2 28 5 32 8
5 8 10 0 20 -7 8 -9 19 -5 25 4 6 1 24 -7 41 -11 25 -17 29 -40 25 -22 -4 -27
-1 -33 21 -6 26 6 43 33 43 6 0 12 9 12 20 0 11 5 20 11 20 6 0 8 7 5 16 -3 8
-1 25 5 36 9 17 8 23 -5 30 -9 5 -16 16 -16 23 0 8 -7 15 -15 15 -8 0 -15 5
-15 11 0 7 -11 8 -30 4 -23 -5 -30 -3 -30 9 0 9 6 16 13 16 40 1 68 71 36 91
-11 6 -9 13 9 31 21 23 21 24 3 37 -11 8 -16 21 -14 32 4 14 0 19 -15 19 -12
0 -23 9 -27 20 -5 14 -15 20 -38 20 l-32 1 26 22 c22 18 26 29 23 65 -1 25 2
42 9 42 7 0 7 4 -1 12 -9 9 -15 10 -20 2 -9 -14 -38 -24 -47 -16 -3 4 -14 7
-23 7 -9 0 -17 7 -17 15 0 8 8 14 18 14 21 -2 21 5 2 30 -11 15 -12 23 -3 33
8 10 7 17 -8 28 -11 8 -14 14 -6 15 17 0 15 39 -3 46 -8 4 -15 15 -15 25 0 12
-7 19 -20 19 -12 0 -20 7 -21 18 0 10 -3 12 -6 5 -7 -20 -31 -15 -38 7 -9 28
-32 25 -39 -6 -4 -16 -12 -24 -20 -21 -8 3 -18 1 -24 -5 -8 -8 -15 -8 -26 1
-12 10 -19 9 -38 -3 -22 -14 -25 -13 -57 20 -19 18 -32 36 -30 39 3 2 23 -4
44 -15 60 -30 106 -25 85 10 -5 9 -5 19 2 27 7 9 7 13 -2 13 -7 0 -10 7 -6 15
3 9 -1 18 -8 21 -8 3 -12 14 -9 25 4 13 1 19 -8 17 -9 -2 -13 4 -11 16 3 17 1
18 -11 8 -11 -10 -16 -10 -19 -1 -2 7 -16 13 -30 15 -30 3 -41 -15 -32 -52 4
-14 2 -24 -4 -24 -13 0 -26 36 -18 49 9 14 -4 41 -20 41 -7 0 -20 14 -29 30
-16 30 -38 39 -50 19 -5 -6 -11 -4 -19 7 -10 12 -20 15 -41 10 -24 -6 -27 -5
-21 11 4 10 8 23 9 28 2 10 -34 12 -63 4 -8 -2 -14 2 -12 9 1 6 -7 12 -17 12
-10 0 -22 7 -25 16 -3 8 -2 12 4 9 6 -3 10 5 10 18 0 27 -35 44 -56 26 -8 -7
-14 -6 -17 3 -3 7 -6 3 -6 -9 -1 -14 -6 -21 -14 -17 -7 2 -19 -6 -26 -19 -16
-29 -51 -25 -51 5 0 15 -5 18 -21 13 -15 -5 -19 -4 -14 5 7 11 -10 29 -48 51
-15 9 -19 7 -24 -10 -6 -25 -11 -26 -34 -5 -11 10 -23 13 -31 8 -7 -5 -21 -7
-31 -6 -14 3 -17 -2 -15 -20 3 -26 0 -28 -42 -28 -25 0 -30 4 -30 24 0 18 -7
25 -27 29 -18 3 -31 0 -36 -9 -11 -20 -25 -17 -32 6 -7 21 -10 22 -35 13z
m180 -198 c14 -17 6 -45 -13 -45 -19 0 -50 36 -42 49 9 16 41 13 55 -4z m524
-25 c10 -13 9 -13 -6 -1 -10 7 -18 21 -17 30 0 13 1 14 6 1 3 -8 11 -22 17
-30z m-946 -24 c3 -3 -4 -6 -16 -6 -12 0 -25 0 -29 -1 -4 0 -9 4 -11 9 -3 10
45 8 56 -2z m876 -18 c-3 -5 -18 -8 -34 -8 -16 0 -31 3 -34 8 -2 4 13 7 34 7
21 0 36 -3 34 -7z m-706 -43 c19 -24 20 -24 37 -5 23 26 33 25 56 -2 24 -30
24 -42 -4 -74 l-24 -27 -8 44 c-7 37 -9 40 -12 17 -3 -15 0 -35 5 -45 7 -12 6
-28 -3 -53 -8 -19 -16 -44 -18 -55 -8 -43 -29 38 -23 91 5 44 2 57 -19 88 -14
20 -25 39 -25 41 0 13 21 2 38 -20z m432 0 c12 -13 27 -22 31 -19 5 3 9 -16 9
-41 0 -28 -4 -44 -10 -40 -5 3 -10 21 -10 40 0 33 -13 46 -37 38 -7 -3 -13
-20 -13 -39 0 -31 3 -35 23 -32 19 3 22 -2 25 -39 4 -51 -11 -56 -34 -10 -9
17 -27 45 -40 60 -30 35 -30 54 -2 84 27 29 29 29 58 -2z m154 9 c9 -24 7 -28
-9 -14 -17 14 -20 30 -6 30 5 0 12 -7 15 -16z m-713 -74 c-10 -8 -21 -23 -24
-33 -8 -21 -22 -15 -37 14 -9 16 -6 22 25 40 19 12 35 28 36 37 0 10 5 4 10
-13 7 -24 5 -33 -10 -45z m787 17 c27 -41 27 -43 2 -50 -16 -4 -20 -14 -20
-52 0 -41 -2 -46 -17 -40 -10 3 -30 9 -45 12 -24 5 -27 2 -33 -31 -7 -33 -10
-36 -41 -36 -19 0 -34 5 -34 10 0 15 50 60 66 60 8 0 14 4 14 9 0 5 10 7 21 4
15 -4 27 1 40 18 23 30 24 57 3 80 -18 20 -13 49 8 49 7 0 23 -15 36 -33z
m-275 -69 c31 -41 37 -58 37 -98 0 -42 -6 -55 -48 -107 -26 -33 -55 -71 -65
-84 l-18 -24 12 25 c7 14 25 44 41 67 36 54 45 95 24 112 -14 12 -16 10 -16
-16 0 -33 -55 -117 -70 -108 -8 5 -23 45 -34 97 -5 22 1 34 30 63 39 40 41 66
5 75 -22 5 -22 6 -7 19 9 8 14 21 11 29 -4 11 0 13 20 8 20 -5 24 -3 19 11 -5
17 -4 17 8 0 7 -10 30 -41 51 -69z m-219 45 c10 4 20 -2 26 -14 8 -15 8 -21
-4 -25 -27 -10 -24 -31 11 -80 31 -43 34 -54 30 -97 -2 -27 -9 -53 -16 -60
-16 -16 -77 46 -95 97 l-14 41 -1 -36 c-1 -28 9 -49 41 -90 l41 -54 -52 50
c-95 90 -104 143 -44 238 33 52 38 57 50 42 7 -10 19 -15 27 -12z m342 -50 c1
-37 -4 -51 -20 -65 -31 -26 -36 -22 -24 20 9 33 35 92 41 92 1 0 2 -21 3 -47z
m278 21 c22 -9 10 -23 -14 -17 -11 3 -17 9 -14 14 6 11 8 11 28 3z m-554 -24
c0 -5 -2 -10 -4 -10 -3 0 -8 5 -11 10 -3 6 -1 10 4 10 6 0 11 -4 11 -10z
m-370 -10 c0 -5 10 -19 23 -30 l22 -22 -35 4 c-28 2 -37 -1 -45 -19 -5 -13
-13 -23 -17 -23 -4 0 -5 -7 -2 -15 4 -8 1 -15 -5 -15 -16 0 -14 9 16 72 26 53
43 72 43 48z m129 -32 c5 -13 7 -25 5 -27 -5 -6 -44 30 -44 41 0 18 31 7 39
-14z m-513 -17 c25 -15 34 -31 44 -70 7 -29 10 -61 7 -72 -3 -12 -2 -32 3 -45
12 -32 0 -30 -33 4 -26 27 -26 28 -7 40 24 15 25 29 4 82 -12 31 -22 40 -39
40 -18 0 -23 5 -22 20 2 25 4 25 43 1z m1534 4 c0 -2 -9 -19 -20 -37 -21 -34
-28 -108 -10 -108 16 0 12 -32 -7 -52 -22 -24 -36 -23 -28 3 4 11 1 34 -5 50
-9 20 -9 33 -2 42 5 6 13 28 17 47 4 19 15 40 24 47 17 13 31 17 31 8z m-1027
-33 c15 -15 27 -30 27 -33 0 -2 -18 -3 -41 -1 -32 3 -42 9 -50 29 -12 33 -12
33 14 33 13 0 35 -13 50 -28z m697 -33 c0 -5 -4 -9 -10 -9 -5 0 -10 7 -10 16
0 8 5 12 10 9 6 -3 10 -10 10 -16z m-1011 -64 c1 -17 -4 -36 -10 -42 -7 -7 -1
-26 24 -64 29 -46 62 -137 53 -146 -1 -2 -24 13 -49 33 -51 40 -63 63 -48 91
7 13 4 35 -10 75 l-19 57 23 34 c20 32 22 33 29 13 3 -12 6 -35 7 -51z m1173
29 c19 -21 19 -22 -1 -60 -25 -46 -26 -71 -5 -95 14 -15 14 -20 0 -46 -8 -17
-31 -42 -50 -57 l-36 -27 0 34 c0 19 14 65 31 101 22 47 30 75 26 95 -7 32 4
115 11 91 2 -8 13 -25 24 -36z m439 19 c12 -15 12 -16 -4 -10 -10 4 -23 7 -28
7 -6 0 -7 5 -4 10 9 15 21 12 36 -7z m-1567 -27 c-10 -8 -21 -12 -23 -10 -3 2
4 11 15 18 10 8 21 12 23 10 3 -2 -4 -11 -15 -18z m289 11 c39 -17 126 -110
153 -164 14 -27 19 -59 19 -115 -1 -94 -11 -109 -53 -73 -40 34 -72 101 -72
154 0 23 -4 40 -9 36 -5 -3 -12 7 -14 22 -2 16 -5 4 -6 -25 -1 -51 -2 -52 -23
-41 l-23 12 22 -25 c25 -27 123 -221 123 -244 0 -18 -14 -18 -81 2 -109 32
-187 82 -215 136 -20 38 -18 48 9 48 31 0 61 33 53 58 -9 26 -26 32 -72 25
l-36 -6 5 -61 6 -61 -19 40 c-32 67 -35 118 -10 170 24 50 37 57 42 23 2 -18
9 -22 29 -20 23 2 26 -1 21 -23 -4 -24 -2 -26 30 -22 45 5 58 14 58 38 0 13 7
19 21 19 16 0 19 4 14 23 -4 12 -15 34 -26 49 -10 15 -19 30 -19 33 0 10 40 5
73 -8z m547 6 c0 -3 -6 -14 -14 -22 -8 -9 -18 -33 -21 -55 -7 -36 -6 -38 14
-31 15 4 21 2 21 -9 0 -18 37 -46 61 -46 12 0 15 7 11 26 -4 25 -3 26 22 20
22 -5 26 -3 26 14 0 34 18 22 40 -27 26 -57 24 -145 -3 -183 -17 -25 -18 -24
-11 32 8 68 -3 88 -51 88 -24 0 -35 -6 -45 -26 -20 -36 -3 -59 44 -58 20 1 36
-1 36 -4 0 -3 -9 -25 -21 -48 -13 -29 -37 -53 -71 -75 -28 -18 -58 -40 -67
-49 -9 -10 -25 -22 -36 -29 -18 -11 -18 -11 5 -5 14 3 40 16 59 27 19 11 31
15 27 9 -4 -7 -21 -19 -39 -28 -41 -22 -89 -35 -82 -23 4 5 -6 9 -22 10 -25 0
-26 1 -8 9 15 7 10 9 -22 9 -25 1 -43 6 -43 12 0 6 19 44 43 83 67 112 88 175
68 200 -5 6 -11 20 -14 31 -3 12 -5 7 -6 -15 -3 -86 -14 -113 -62 -162 -70
-69 -79 -66 -79 32 0 50 6 95 15 117 24 56 94 142 134 163 35 19 91 27 91 13z
m224 -19 c26 -25 10 -151 -20 -161 -8 -2 -54 91 -54 110 0 4 9 3 21 -3 39 -22
70 37 32 59 -10 6 -13 11 -6 11 6 0 19 -7 27 -16z m-515 -84 c0 -19 -4 -42 -9
-50 -9 -13 -11 -13 -20 0 -11 15 -6 92 7 113 9 15 21 -20 22 -63z m-549 40 c8
-15 17 -19 35 -14 l25 6 -21 -48 c-12 -27 -25 -53 -29 -57 -7 -8 -40 84 -40
114 0 25 16 24 30 -1z m-428 -72 c-18 -18 -72 -19 -65 -2 3 8 20 14 41 14 29
0 33 -3 24 -12z m1967 -1 c6 -8 8 -16 5 -19 -7 -8 -74 14 -74 24 0 13 57 9 69
-5z m-1829 -103 c0 -8 10 -24 22 -36 28 -28 31 -48 10 -65 -20 -15 -68 -17
-77 -3 -4 6 6 10 22 10 l28 1 -32 14 c-37 16 -39 23 -18 51 8 10 15 27 15 36
0 21 30 13 30 -8z m218 -27 c23 -23 42 -46 42 -49 0 -13 -105 5 -122 20 -16
14 -18 13 -18 -2 0 -9 -4 -14 -10 -11 -17 11 -11 24 20 40 17 9 30 22 30 30 0
24 13 18 58 -28z m1262 29 c0 -7 10 -21 23 -30 22 -15 22 -16 3 -31 -12 -9
-40 -15 -69 -15 l-50 0 19 23 c60 72 74 82 74 53z m180 4 c0 -5 10 -19 23 -30
22 -21 22 -22 3 -36 -11 -8 -16 -14 -10 -14 5 -1 -4 -7 -21 -15 l-30 -13 30
-1 c21 -1 26 -4 18 -12 -7 -7 -24 -8 -43 -4 -24 5 -29 10 -19 16 10 6 8 9 -8
9 -29 0 -30 24 -3 47 11 10 20 28 20 40 0 16 6 23 20 23 11 0 20 -4 20 -10z
m228 -76 c13 -24 3 -56 -17 -52 -17 3 -26 31 -17 54 7 19 23 18 34 -2z m-1049
-69 c2 -38 30 -101 65 -142 23 -28 31 -31 48 -22 19 10 19 10 3 -15 -10 -14
-22 -26 -27 -26 -5 0 -16 -16 -24 -35 -8 -19 -16 -35 -18 -35 -5 0 10 55 18
69 3 5 -12 40 -34 77 -40 68 -40 69 -41 34 -1 -33 -2 -33 -10 10 -10 58 -11
145 -2 154 9 9 21 -27 22 -69z m-1069 61 c0 -2 -3 -11 -6 -20 -9 -23 -24 -20
-24 4 0 11 7 20 15 20 8 0 15 -2 15 -4z m522 -37 c20 -5 47 -18 60 -30 l23
-20 -50 7 c-27 3 -100 8 -161 9 -126 3 -169 15 -113 33 19 6 43 13 54 16 26 6
141 -2 187 -15z m1297 -7 c19 -10 37 -23 39 -30 3 -11 0 -12 -14 -4 -24 12
-274 5 -309 -8 -20 -8 -26 -7 -23 2 20 60 214 85 307 40z m117 -49 c-10 -11
-25 18 -18 35 4 13 8 11 15 -6 6 -12 7 -25 3 -29z m-1769 15 c-3 -8 -6 -5 -6
6 -1 11 2 17 5 13 3 -3 4 -12 1 -19z m103 2 c0 -5 -6 -10 -14 -10 -8 0 -18 5
-21 10 -3 6 3 10 14 10 12 0 21 -4 21 -10z m288 -31 c69 -22 132 -55 132 -69
0 -4 -35 -20 -77 -35 -64 -22 -89 -26 -138 -22 -33 3 -61 10 -63 15 -1 5 -14
7 -28 4 -20 -3 -33 4 -59 32 -29 32 -32 39 -21 61 10 22 17 25 65 25 l55 0
-22 -21 c-28 -26 -20 -40 18 -32 34 6 37 -2 13 -37 -16 -24 -16 -24 1 -11 23
19 46 64 46 91 0 25 -4 25 78 -1z m1092 -84 c11 -12 20 -24 20 -27 0 -3 -23
-11 -50 -18 -46 -11 -56 -10 -128 16 -42 15 -80 30 -85 34 -10 9 64 49 142 76
l66 23 7 -41 c4 -23 17 -51 28 -63z m121 93 c8 -7 21 -21 28 -31 12 -15 12
-17 -3 -11 -11 4 -16 1 -16 -14 0 -24 -44 -62 -72 -62 -21 0 -68 42 -68 61 0
7 9 9 25 5 37 -9 49 2 31 29 -8 12 -12 25 -9 29 11 11 69 6 84 -6z m359 -49
c0 -11 -7 -19 -16 -19 -11 0 -14 5 -10 16 3 9 6 20 6 25 0 6 5 7 10 4 6 -3 10
-15 10 -26z m-2145 -5 c0 -5 10 -23 23 -41 16 -22 19 -34 11 -39 -14 -8 -39
22 -39 47 0 10 -4 21 -10 24 -14 9 -12 27 3 23 6 -3 12 -9 12 -14z m2135 -60
c0 -25 -14 -30 -40 -14 -12 7 -12 12 4 29 22 25 36 19 36 -15z m-225 16 c3 -5
16 -10 29 -10 12 0 31 -6 41 -14 17 -12 14 -15 -31 -29 -64 -21 -271 -43 -309
-33 -28 8 -26 9 43 32 67 22 75 23 95 9 46 -32 106 -9 92 35 -5 16 -2 20 14
20 11 0 23 -4 26 -10z m-1660 -27 c0 -23 5 -29 28 -31 17 -2 37 4 48 14 18 16
22 16 82 -1 92 -27 98 -32 43 -40 -57 -9 -252 17 -293 39 l-28 14 25 10 c74
28 96 27 95 -5z m685 7 c21 -11 41 -24 45 -30 3 -5 15 -15 27 -21 19 -10 20
-9 14 23 -5 29 -5 30 4 9 6 -14 9 -30 6 -37 -3 -7 4 -25 16 -39 21 -27 58
-133 57 -163 0 -10 -8 9 -19 41 -30 96 -80 159 -169 214 -45 28 -34 30 19 3z
m1264 -54 c-5 -12 -44 -31 -44 -21 0 17 16 35 31 35 12 0 16 -5 13 -14z m-929
-4 c-53 -42 -60 -46 -33 -19 16 15 31 27 35 27 4 0 3 -3 -2 -8z m-1091 -16
c-21 -15 -30 -14 -19 3 3 6 14 11 23 11 13 0 13 -2 -4 -14z m1786 -1 c16 -19
0 -19 -26 0 -16 12 -16 14 -3 15 9 0 22 -7 29 -15z m-1447 -38 c-17 -17 -36
-43 -43 -57 -9 -19 -5 -17 18 10 16 19 33 32 37 29 10 -11 -15 -90 -26 -83 -5
3 -16 0 -24 -6 -12 -10 -15 -9 -15 4 0 10 -4 15 -10 11 -5 -3 -18 0 -29 7 -17
10 -23 9 -40 -6 -12 -11 -21 -30 -21 -43 0 -16 -6 -23 -20 -23 -13 0 -20 7
-20 20 0 15 -7 20 -29 20 -34 0 -47 23 -25 44 8 9 37 22 63 30 26 8 67 24 91
36 53 27 113 49 119 44 3 -3 -9 -19 -26 -37z m1367 24 c19 -36 10 -46 -14 -16
-26 33 -45 30 -26 -4 6 -12 8 -26 4 -32 -10 -16 -86 -4 -142 23 l-47 21 70 9
c39 4 75 10 80 12 27 12 65 5 75 -13z m-1518 3 c37 -4 65 -10 63 -15 -8 -12
-134 -51 -145 -44 -5 3 -7 18 -4 33 5 27 5 27 -13 7 -10 -12 -26 -24 -36 -28
-16 -6 -15 -2 5 22 25 33 32 34 130 25z m1265 -24 c37 -17 101 -39 142 -50 49
-12 83 -28 100 -45 24 -23 24 -25 6 -24 -57 6 -75 -1 -75 -26 0 -14 -3 -25 -6
-25 -17 0 -44 23 -44 39 0 10 -9 26 -19 35 -25 22 -61 13 -61 -16 0 -17 -3
-18 -15 -8 -8 7 -24 10 -34 7 -26 -6 -47 11 -55 46 -8 36 0 34 24 -5 14 -23
20 -27 20 -15 0 21 -26 74 -48 100 -21 23 -12 22 65 -13z m-1367 -42 c0 -6
-10 -22 -21 -34 -21 -22 -23 -22 -45 -6 l-23 17 37 17 c45 20 52 21 52 6z
m875 -59 c3 -31 3 -37 -3 -19 -15 43 -23 97 -12 79 5 -9 12 -36 15 -60z m787
59 c10 0 27 -14 39 -31 l22 -32 -29 30 -29 30 -3 -28 c-4 -35 -25 -34 -51 2
-22 30 -13 46 19 34 8 -3 23 -5 32 -5z m-1994 -74 c-10 -10 -23 -14 -34 -10
-16 6 -16 8 -4 16 8 6 24 10 35 10 18 0 18 -1 3 -16z m2302 7 l25 -7 -24 -13
c-20 -11 -26 -10 -44 8 -21 20 -21 21 -2 20 11 -1 31 -4 45 -8z m-1160 -85 c0
-12 -5 -7 -19 24 -11 24 -11 24 3 6 9 -11 16 -24 16 -30z m-1072 6 c3 -9 -3
-13 -19 -10 -12 1 -24 9 -27 16 -3 9 3 13 19 10 12 -1 24 -9 27 -16z m76 -1
c3 -5 -3 -20 -14 -32 l-19 -24 -1 26 c0 35 20 53 34 30z m1995 -5 c11 -13 5
-46 -8 -46 -11 0 -31 47 -24 54 10 9 20 7 32 -8z m-980 -76 c0 -19 -4 -43 -7
-53 -4 -9 -7 12 -7 47 0 35 3 59 7 53 4 -7 7 -28 7 -47z m78 -102 c-3 -8 -6
-5 -6 6 -1 11 2 17 5 13 3 -3 4 -12 1 -19z m-167 -72 c0 -2 -8 -10 -17 -17
-16 -13 -17 -12 -4 4 13 16 21 21 21 13z m223 -75 c-6 -8 -31 23 -38 49 -6 21
-3 19 17 -10 14 -19 23 -37 21 -39z m-268 39 c-3 -5 -12 -10 -18 -10 -7 0 -6
4 3 10 19 12 23 12 15 0z m-150 -160 c-11 -5 -29 -9 -41 -9 -11 -1 -50 -19
-87 -41 -36 -22 -77 -40 -91 -40 -17 0 -24 -4 -20 -14 7 -18 -82 -94 -126
-106 -39 -11 -110 -13 -134 -4 -25 10 13 54 92 110 113 80 161 97 287 104 61
4 117 7 125 8 8 0 6 -3 -5 -8z m702 -10 c77 -18 205 -87 287 -155 41 -34 45
-40 29 -46 -25 -10 -101 -10 -146 0 -37 9 -132 85 -132 106 0 5 -17 16 -38 23
-41 13 -116 62 -117 75 0 10 67 8 117 -3z m-507 -195 c-6 -7 -26 -16 -45 -19
-48 -9 -86 -72 -56 -90 5 -4 7 3 4 14 -7 28 12 48 53 56 20 4 44 18 55 33 l22
26 -5 -48 c-7 -58 -20 -73 -99 -116 -72 -39 -78 -36 -109 51 -18 52 -18 60 -5
105 16 55 49 90 132 143 l58 36 3 -89 c2 -53 -2 -94 -8 -102z m209 128 c103
-77 120 -132 75 -245 -15 -39 -17 -53 -7 -78 6 -16 7 -32 3 -35 -11 -7 -40 34
-34 49 2 6 -13 19 -34 28 -57 27 -109 74 -115 106 -3 17 -9 43 -13 58 l-6 29
28 -33 c16 -18 45 -40 64 -50 21 -10 37 -27 40 -42 4 -15 9 -20 13 -13 11 17
-14 63 -37 69 -24 6 -53 62 -61 119 -3 22 -8 55 -11 73 -6 40 -2 38 95 -35z
m-375 15 c-45 -49 -63 -82 -75 -140 -6 -29 -16 -59 -22 -66 -18 -22 -131 -76
-135 -64 -8 24 -44 62 -59 62 -11 0 -7 -7 11 -21 32 -26 34 -64 4 -98 l-23
-26 23 20 c20 16 25 17 32 5 17 -26 11 -48 -20 -70 -27 -20 -31 -20 -59 -5
-39 20 -57 51 -40 71 6 8 15 40 18 72 5 43 10 56 21 54 12 -3 12 -1 3 9 -20
20 10 78 41 79 5 0 6 -15 2 -32 -5 -31 -4 -30 17 11 20 38 36 52 113 94 84 46
147 75 168 76 6 1 -4 -14 -20 -31z m-726 -10 c28 -11 52 -21 52 -23 0 -1 -15
-10 -33 -19 -26 -12 -42 -13 -70 -5 -37 10 -97 53 -97 70 0 13 87 -1 148 -23z
m272 -8 c-22 -17 -100 -29 -100 -15 0 12 59 34 90 34 l35 1 -25 -20z m1426 3
l39 -18 -37 -3 c-32 -3 -98 20 -98 33 0 12 61 4 96 -12z m-699 -55 c-3 -8 -6
-5 -6 6 -1 11 2 17 5 13 3 -3 4 -12 1 -19z m818 -32 c40 -41 41 -45 21 -50
-45 -12 -68 -5 -111 35 -25 23 -45 45 -45 50 0 5 21 9 46 9 41 0 50 -5 89 -44z
m-775 -48 c0 -12 -7 -10 -24 8 -9 8 -16 23 -16 32 0 13 5 11 20 -8 11 -14 20
-28 20 -32z m-10 -125 c28 -26 30 -31 24 -81 -7 -51 -7 -52 -26 -35 -27 24
-34 41 -42 96 -8 55 0 59 44 20z m-121 -34 c-5 -31 -17 -62 -31 -76 l-22 -24
-14 47 -13 46 33 29 c49 42 56 38 47 -22z m-319 36 c0 -4 -7 -20 -16 -37 -13
-25 -14 -38 -5 -74 6 -23 11 -45 11 -48 0 -13 -21 -5 -40 14 -41 41 -16 150
35 150 8 0 15 -2 15 -5z m-88 -37 c-7 -7 -12 -8 -12 -2 0 14 12 26 19 19 2 -3
-1 -11 -7 -17z m238 -15 c0 -20 -17 -50 -24 -43 -2 3 -2 17 1 33 6 30 23 37
23 10z m74 -15 c14 -53 8 -72 -51 -157 -2 -2 -5 -2 -8 1 -3 3 2 21 10 41 9 22
11 37 5 37 -5 0 -10 8 -10 18 0 10 -5 23 -10 28 -7 7 -3 17 10 32 27 28 46 28
54 0z m316 -13 c16 -25 20 -43 15 -65 -9 -42 -20 -44 -49 -9 -27 31 -30 47
-20 87 9 32 29 27 54 -13z m-221 -156 c-10 -33 -19 -69 -19 -79 0 -31 -18 -32
-33 -3 -9 18 -11 38 -6 56 10 35 57 99 69 92 4 -3 -1 -32 -11 -66z m14 -49
c-3 -11 -10 -23 -16 -27 -5 -3 -8 -2 -5 3 3 5 8 17 11 27 9 24 16 22 10 -3z"/>
<path d="M3108 2343 c7 -3 16 -2 19 1 4 3 -2 6 -13 5 -11 0 -14 -3 -6 -6z"/>
<path d="M2709 1361 c-28 -28 -39 -47 -38 -67 l1 -29 8 29 c5 16 26 47 47 68
20 21 33 38 29 38 -5 0 -26 -17 -47 -39z"/>
<path d="M3020 1393 c0 -4 16 -21 35 -36 19 -15 35 -34 35 -42 0 -8 4 -15 9
-15 20 0 -3 40 -40 70 -21 17 -39 27 -39 23z"/>
<path d="M3091 1274 c0 -11 3 -14 6 -6 3 7 2 16 -1 19 -3 4 -6 -2 -5 -13z"/>
<path d="M2538 1370 c-20 -11 -46 -32 -57 -46 -22 -27 -29 -74 -11 -74 5 0 7
7 4 15 -9 23 21 61 71 90 65 39 60 50 -7 15z"/>
<path d="M3445 3260 c-3 -5 1 -10 10 -10 9 0 13 5 10 10 -3 6 -8 10 -10 10 -2
0 -7 -4 -10 -10z"/>
<path d="M3655 1190 c-4 -6 3 -10 14 -10 25 0 27 6 6 13 -8 4 -17 2 -20 -3z"/>
<path d="M2596 1175 c-10 -7 -16 -18 -15 -23 2 -6 12 1 22 14 21 27 19 29 -7
9z"/>
<path d="M3758 1183 c7 -3 16 -2 19 1 4 3 -2 6 -13 5 -11 0 -14 -3 -6 -6z"/>
<path d="M3180 1176 c0 -2 7 -9 15 -16 9 -7 15 -8 15 -2 0 5 -7 12 -15 16 -8
3 -15 4 -15 2z"/>
<path d="M2168 1165 c-3 -3 -25 -10 -49 -15 -42 -9 -43 -9 -6 -7 36 3 50 -6
25 -16 -8 -4 -9 -6 -2 -6 7 -1 19 10 28 24 15 23 17 33 4 20z"/>
<path d="M3550 1105 c7 -9 15 -13 17 -11 7 7 -7 26 -19 26 -6 0 -6 -6 2 -15z"/>
<path d="M3497 1023 c-31 -8 -10 -19 29 -15 25 3 32 7 23 13 -15 9 -23 10 -52
2z"/>
<path d="M3190 965 c1 -12 28 -44 55 -65 19 -14 19 -14 6 3 -12 15 -11 17 15
18 28 1 28 1 -5 9 -18 4 -37 14 -42 22 -5 7 -9 9 -9 3 0 -5 -5 -3 -10 5 -5 8
-10 11 -10 5z"/>
<path d="M3143 925 c15 -14 33 -25 40 -25 6 0 -4 11 -23 25 -43 32 -53 32 -17
0z"/>
<path d="M3326 931 c-3 -5 3 -11 15 -14 16 -4 18 -3 8 9 -13 16 -16 17 -23 5z"/>
<path d="M3221 864 c0 -11 3 -14 6 -6 3 7 2 16 -1 19 -3 4 -6 -2 -5 -13z"/>
</g>
</svg>
